<svg xmlns="http://www.w3.org/2000/svg" width="897" height="370" viewBox="0 0 897 370" version="1.1"><path d="M 353.320 44 C 353.320 47.575, 353.502 49.038, 353.723 47.250 C 353.945 45.462, 353.945 42.538, 353.723 40.750 C 353.502 38.962, 353.320 40.425, 353.320 44 M 347.244 62.996 C 345 66.249, 342.848 69.942, 342.463 71.205 C 342.078 72.467, 341.209 74.175, 340.530 75 C 339.014 76.845, 336.411 81.910, 331.280 93 C 319.171 119.173, 311.714 145.397, 310.513 166.024 L 309.903 176.500 311.878 171.247 C 314.150 165.204, 316.673 161.590, 323 155.314 C 328.065 150.289, 333.284 147.663, 343.500 144.998 C 347.350 143.993, 349.690 143.133, 348.700 143.086 C 345.471 142.932, 340.953 139.970, 338.960 136.701 C 335.706 131.366, 336.327 124.831, 340.975 115.489 C 345.333 106.729, 345.859 102.686, 343.507 96.019 C 341.933 91.560, 342.199 90, 344.533 90 C 347.161 90, 349.444 96.093, 349.406 103 C 349.369 109.495, 348.308 112.735, 344.984 116.500 C 342.210 119.642, 340.783 128.178, 342.271 132.722 C 344.812 140.480, 355.450 142.390, 360.060 135.916 C 363.931 130.479, 363.712 126.398, 358.958 115.387 C 354.202 104.369, 353.536 98.626, 356.383 93.186 C 358.197 89.721, 360.692 89.346, 360.235 92.608 C 358.564 104.540, 358.577 104.657, 362.551 112.728 C 365.431 118.577, 366.486 122.092, 366.817 126.934 C 367.389 135.304, 365.470 139.109, 359.341 141.762 L 354.914 143.678 363.549 146.487 C 376.607 150.735, 385.565 159.436, 390.263 172.434 L 392.094 177.500 391.477 165.791 C 390.715 151.318, 384.596 123.927, 379.602 112.635 C 378.329 109.757, 376.723 105.624, 376.033 103.451 C 374.792 99.542, 368.421 85.296, 365.321 79.500 C 364.438 77.850, 362.510 74.250, 361.036 71.500 C 357.500 64.902, 353.297 58.302, 352.203 57.625 C 351.720 57.327, 349.488 59.744, 347.244 62.996 M 296.362 141.500 C 295.036 144.955, 296.711 146.007, 303.219 145.807 L 309.500 145.615 303.250 145.260 C 297.893 144.955, 297 144.632, 297 142.998 C 297 141.345, 297.899 141.045, 303.750 140.742 L 310.500 140.392 303.719 140.196 C 298.484 140.045, 296.806 140.342, 296.362 141.500 M 394.728 140.722 C 396.503 140.943, 399.653 140.946, 401.728 140.730 C 403.802 140.513, 402.350 140.333, 398.500 140.328 C 394.650 140.324, 392.952 140.501, 394.728 140.722 M 395.750 145.723 C 397.538 145.945, 400.462 145.945, 402.250 145.723 C 404.038 145.502, 402.575 145.320, 399 145.320 C 395.425 145.320, 393.962 145.502, 395.750 145.723 M 295.728 165.722 C 297.503 165.943, 300.653 165.946, 302.728 165.730 C 304.802 165.513, 303.350 165.333, 299.500 165.328 C 295.650 165.324, 293.952 165.501, 295.728 165.722 M 398.750 165.723 C 400.538 165.945, 403.462 165.945, 405.250 165.723 C 407.038 165.502, 405.575 165.320, 402 165.320 C 398.425 165.320, 396.962 165.502, 398.750 165.723 M 296.768 193.725 C 298.565 193.947, 301.265 193.943, 302.768 193.715 C 304.271 193.486, 302.800 193.304, 299.500 193.310 C 296.200 193.315, 294.971 193.502, 296.768 193.725 M 310.520 206 C 311.209 218.905, 311.807 222.240, 316.621 240 C 319.998 252.460, 323.554 262.647, 325.156 264.450 C 325.620 264.972, 326 266.126, 326 267.013 C 326 269.869, 339.723 296.109, 347.927 308.937 L 351.353 314.295 353.691 311.397 C 358.128 305.899, 371.890 278.217, 378.199 262.099 C 385.335 243.866, 390.705 221.074, 391.414 206 C 391.751 198.863, 391.634 195.729, 391.106 197.739 C 389.659 203.259, 383.926 211.621, 378.086 216.732 C 372.602 221.531, 360.854 226.941, 355.693 227.044 C 354.158 227.075, 354.628 227.490, 357.259 228.429 C 364.458 230.998, 367.002 234.988, 366.996 243.700 C 366.992 248.509, 366.293 250.867, 362.908 257.500 C 358.670 265.801, 358.578 266.521, 360.225 278.500 C 360.654 281.617, 357.725 280.911, 356.079 277.500 C 353.603 272.369, 354.342 266.309, 358.578 257 C 363.267 246.698, 363.767 240.276, 360.263 235.364 C 356.183 229.644, 345.331 230.368, 342.994 236.517 C 340.773 242.357, 342.338 252.803, 345.936 256.155 C 350.201 260.129, 350.992 271.247, 347.491 278.017 C 345.994 280.913, 343.678 281.906, 342.577 280.125 C 342.280 279.644, 342.758 277.133, 343.639 274.546 C 345.728 268.415, 345.070 264.141, 340.626 254.981 C 336.630 246.745, 336.018 241.286, 338.440 235.490 C 339.928 231.929, 344.996 228.098, 348.500 227.887 C 349.600 227.820, 348.128 227.371, 345.228 226.888 C 336.949 225.509, 329.645 221.909, 323.842 216.347 C 316.780 209.578, 314.254 206.074, 311.879 199.753 L 309.905 194.500 310.520 206 M 296.728 214.722 C 298.503 214.943, 301.653 214.946, 303.728 214.730 C 305.802 214.513, 304.350 214.333, 300.500 214.328 C 296.650 214.324, 294.952 214.501, 296.728 214.722 M 397.728 214.722 C 399.503 214.943, 402.653 214.946, 404.728 214.730 C 406.802 214.513, 405.350 214.333, 401.500 214.328 C 397.650 214.324, 395.952 214.501, 397.728 214.722 M 378.998 272.161 C 378.999 272.525, 381.701 272.975, 385.002 273.161 C 388.303 273.348, 391.003 273.202, 391.002 272.839 C 391.001 272.475, 388.299 272.025, 384.998 271.839 C 381.697 271.652, 378.997 271.798, 378.998 272.161 M 313.750 272.723 C 315.538 272.945, 318.462 272.945, 320.250 272.723 C 322.038 272.502, 320.575 272.320, 317 272.320 C 313.425 272.320, 311.962 272.502, 313.750 272.723" stroke="none" fill="#fff200" fill-rule="evenodd"/><path d="M 316.264 96.718 C 317.784 96.947, 320.034 96.941, 321.264 96.704 C 322.494 96.467, 321.250 96.279, 318.500 96.286 C 315.750 96.294, 314.744 96.488, 316.264 96.718 M 380.264 96.718 C 381.784 96.947, 384.034 96.941, 385.264 96.704 C 386.494 96.467, 385.250 96.279, 382.500 96.286 C 379.750 96.294, 378.744 96.488, 380.264 96.718 M 311.250 108.716 C 312.762 108.945, 315.238 108.945, 316.750 108.716 C 318.262 108.487, 317.025 108.300, 314 108.300 C 310.975 108.300, 309.738 108.487, 311.250 108.716 M 386.250 108.716 C 387.762 108.945, 390.238 108.945, 391.750 108.716 C 393.262 108.487, 392.025 108.300, 389 108.300 C 385.975 108.300, 384.738 108.487, 386.250 108.716 M 303.336 118 C 303.489 120.334, 303.866 120.505, 309 120.575 L 314.500 120.649 309.313 120.277 C 304.931 119.962, 304.052 119.562, 303.649 117.702 C 303.247 115.845, 303.198 115.891, 303.336 118 M 389.768 120.725 C 391.565 120.947, 394.265 120.943, 395.768 120.715 C 397.271 120.486, 395.800 120.304, 392.500 120.310 C 389.200 120.315, 387.971 120.502, 389.768 120.725 M 343.500 144.998 C 333.316 147.655, 328.076 150.283, 323 155.280 C 316.761 161.423, 313.430 166.292, 311.883 171.531 C 311.157 173.989, 310.228 176, 309.819 176 C 309.410 176, 309.080 180.553, 309.087 186.117 C 309.094 191.682, 309.376 195.957, 309.715 195.619 C 310.053 195.280, 311.123 197.254, 312.092 200.005 C 314.206 206.009, 316.754 209.553, 323.842 216.347 C 332.969 225.095, 347.396 229.387, 358.074 226.531 C 367.836 223.919, 372.554 221.576, 378.275 216.500 C 384.330 211.127, 391 201.068, 391 197.309 C 391 196.039, 391.450 195, 392 195 C 392.597 195, 393 191.147, 393 185.441 C 393 180.184, 392.636 176.107, 392.192 176.382 C 391.747 176.656, 390.869 174.995, 390.241 172.691 C 388.676 166.948, 383.213 158.820, 377.593 153.873 C 374.178 150.867, 370.289 148.839, 363.216 146.376 C 352.152 142.523, 352.808 142.569, 343.500 144.998 M 297.728 154.722 C 299.503 154.943, 302.653 154.946, 304.728 154.730 C 306.802 154.513, 305.350 154.333, 301.500 154.328 C 297.650 154.324, 295.952 154.501, 297.728 154.722 M 408.079 167.700 C 408.009 169.662, 407.386 169.933, 402.329 170.200 C 398.731 170.390, 396.565 170.966, 396.404 171.775 C 396.264 172.476, 396.379 172.589, 396.658 172.025 C 396.938 171.461, 399.618 171, 402.615 171 C 408.116 171, 409.875 169.775, 408.673 166.783 C 408.390 166.077, 408.122 166.490, 408.079 167.700 M 299.431 170.716 C 302.462 170.928, 305.054 171.628, 305.282 172.298 C 305.508 172.959, 305.645 172.825, 305.587 172 C 305.506 170.863, 304.089 170.480, 299.735 170.418 L 293.990 170.336 299.431 170.716 M 296.250 180.716 C 297.762 180.945, 300.238 180.945, 301.750 180.716 C 303.262 180.487, 302.025 180.300, 299 180.300 C 295.975 180.300, 294.738 180.487, 296.250 180.716 M 399.768 180.725 C 401.565 180.947, 404.265 180.943, 405.768 180.715 C 407.271 180.486, 405.800 180.304, 402.500 180.310 C 399.200 180.315, 397.971 180.502, 399.768 180.725 M 300.931 197.706 C 304.193 198.039, 304.953 198.535, 305.311 200.567 C 305.690 202.719, 305.728 202.681, 305.622 200.262 C 305.509 197.714, 305.170 197.492, 301.243 197.402 L 296.985 197.304 300.931 197.706 M 300.768 225.725 C 302.565 225.947, 305.265 225.943, 306.768 225.715 C 308.271 225.486, 306.800 225.304, 303.500 225.310 C 300.200 225.315, 298.971 225.502, 300.768 225.725 M 395.250 225.716 C 396.762 225.945, 399.238 225.945, 400.750 225.716 C 402.262 225.487, 401.025 225.300, 398 225.300 C 394.975 225.300, 393.738 225.487, 395.250 225.716 M 353.193 327.677 C 353.034 333.572, 352.687 334.935, 351.250 335.311 C 349.610 335.739, 349.612 335.775, 351.281 335.884 C 353.708 336.042, 354.164 334.377, 353.744 326.895 L 353.385 320.500 353.193 327.677" stroke="none" fill="#c4261c" fill-rule="evenodd"/><path d="M 350 44.441 C 350 47.984, 349.588 51.137, 349.084 51.448 C 348.580 51.759, 346.551 50.125, 344.575 47.816 C 341.818 44.596, 340.707 43.893, 339.804 44.796 C 338.901 45.699, 339.136 46.515, 340.813 48.301 C 342.016 49.581, 343 51.107, 343 51.692 C 343 52.277, 343.675 53.315, 344.500 54 C 346.430 55.602, 346.366 56.968, 344.228 59.741 L 342.500 61.982 337.221 57.984 C 332.971 54.766, 331.827 54.287, 331.350 55.530 C 330.964 56.537, 332.403 58.626, 335.496 61.547 C 340.038 65.838, 340.183 66.144, 339.009 68.978 C 336.857 74.175, 335.711 74.419, 329.991 70.900 C 325.886 68.374, 324.626 67.988, 323.966 69.055 C 322.789 70.959, 323.484 71.705, 329.071 74.536 C 331.782 75.910, 334 77.601, 334 78.294 C 334 79.304, 332.327 82.342, 330.377 84.871 C 330.220 85.075, 327.585 83.828, 324.522 82.100 C 319.549 79.293, 318.884 79.140, 318.297 80.668 C 317.936 81.610, 318.142 82.547, 318.755 82.752 C 321.479 83.660, 328.093 89.222, 327.735 90.304 C 327.482 91.069, 324.394 91.605, 319.170 91.790 C 311.822 92.052, 311 92.278, 311 94.040 C 311 95.745, 311.704 96, 316.418 96 C 324.630 96, 325.096 96.346, 323.242 101.066 L 321.697 105 314.848 105 C 309.428 105, 308 105.313, 308 106.500 C 308 107.652, 309.278 108, 313.500 108 C 318.650 108, 319 108.154, 319 110.418 C 319 115.479, 318.244 116, 310.893 116 C 304.667 116, 304 116.193, 304 118 C 304 119.755, 304.667 120, 309.441 120 C 312.434 120, 315.131 120.402, 315.434 120.894 C 315.738 121.385, 315.309 123.410, 314.480 125.394 C 312.987 128.966, 312.917 129, 306.987 129 C 302.332 129, 301 129.334, 301 130.500 C 301 131.655, 302.291 132, 306.617 132 C 311.953 132, 312.203 132.112, 311.630 134.250 C 311.299 135.488, 311.021 137.512, 311.014 138.750 C 311.001 140.868, 310.589 141, 304 141 C 297.667 141, 297 141.190, 297 143 C 297 144.797, 297.667 145, 303.567 145 C 309.343 145, 310.075 145.211, 309.642 146.750 C 309.371 147.713, 308.855 149.963, 308.495 151.750 L 307.841 155 301.337 155 C 296.581 155, 294.944 155.336, 295.246 156.250 C 295.494 157.003, 297.911 157.619, 301.329 157.800 C 306.543 158.076, 307 158.291, 307 160.468 C 307 165.410, 306.189 166, 299.393 166 C 293.667 166, 293 166.209, 293 168 C 293 169.776, 293.667 170, 298.941 170 C 302.209 170, 305.121 170.387, 305.413 170.859 C 305.705 171.332, 305.608 173.694, 305.199 176.109 L 304.453 180.500 299.227 180.802 C 295.470 181.019, 294 181.512, 294 182.552 C 294 183.640, 295.366 184, 299.500 184 L 305 184 305 189 L 305 194 298.927 194 C 293.680 194, 292.900 194.238, 293.193 195.750 C 293.471 197.184, 294.613 197.500, 299.516 197.500 L 305.500 197.500 305.798 203.750 L 306.095 210 299.941 210 C 294.739 210, 293.880 210.245, 294.393 211.582 C 294.727 212.452, 295 213.352, 295 213.582 C 295 213.812, 297.670 214, 300.933 214 C 307.447 214, 307.284 213.833, 308.515 221.750 L 309.176 226 303.588 226 C 298.667 226, 298 226.239, 298 228 C 298 229.775, 298.667 230, 303.933 230 C 310.460 230, 310.279 229.813, 311.537 237.879 L 312.219 242.258 306.529 241.547 C 300.974 240.853, 300.847 240.891, 301.170 243.168 C 301.470 245.286, 302.070 245.527, 307.695 245.796 L 313.891 246.093 315.945 251.584 C 317.075 254.604, 318 257.266, 318 257.500 C 318 257.734, 315.075 257.652, 311.500 257.318 C 305.451 256.753, 305 256.850, 305 258.725 C 305 260.846, 308.704 261.965, 315.807 261.989 C 318.830 261.999, 319.312 262.449, 321.437 267.250 L 323.760 272.500 317.630 273 C 313.070 273.372, 311.500 273.884, 311.500 275 C 311.500 276.164, 313.080 276.565, 318.561 276.790 L 325.623 277.080 328.335 282.610 L 331.047 288.140 324.273 287.894 C 318.961 287.701, 317.500 287.956, 317.500 289.074 C 317.500 290.104, 319.695 290.778, 325.399 291.500 C 335.176 292.738, 337.198 294.705, 332.500 298.412 C 326.060 303.493, 323.727 306.127, 324.757 307.157 C 325.839 308.239, 332.353 304.689, 334.887 301.636 C 336.740 299.403, 337.306 299.556, 339.227 302.807 C 340.883 305.611, 340.880 305.619, 335.942 310.768 C 333.224 313.603, 331 316.363, 331 316.902 C 331 319.477, 333.292 318.642, 337.531 314.522 C 340.090 312.035, 342.516 310, 342.923 310 C 343.329 310, 344.252 311.103, 344.974 312.451 C 346.169 314.685, 345.923 315.479, 342.186 321.439 C 338.380 327.510, 338.219 328.047, 339.932 328.964 C 341.457 329.780, 341.983 329.455, 342.961 327.093 C 343.613 325.521, 345.463 322.973, 347.073 321.430 L 350 318.626 350 326.813 C 350 333.424, 350.289 335, 351.500 335 C 352.690 335, 353 333.556, 353 328 C 353 324.150, 353.419 321, 353.932 321 C 355.060 321, 359 326.368, 359 327.904 C 359 328.507, 359.900 329, 361 329 C 363.719 329, 363.552 328.160, 359.502 321.434 C 356.415 316.307, 356.161 315.390, 357.338 313.618 C 359.426 310.472, 360.418 310.653, 364.729 314.964 C 368.320 318.555, 368.904 318.821, 370.080 317.403 C 371.197 316.058, 371.099 315.555, 369.451 314.156 C 368.378 313.245, 366.225 311.087, 364.668 309.359 C 361.882 306.271, 361.863 306.166, 363.500 303.001 L 365.164 299.783 367.832 302.209 C 372.344 306.313, 376.103 308.297, 377.230 307.170 C 378.197 306.203, 377.321 305.228, 369.281 298.325 C 367.657 296.931, 367.358 295.991, 368.012 294.342 C 368.743 292.497, 369.967 292.080, 376.434 291.474 C 382.603 290.896, 384 290.452, 384 289.069 C 384 287.610, 383.142 287.434, 377.874 287.816 C 374.504 288.059, 371.917 287.861, 372.124 287.375 C 372.331 286.888, 373.349 284.355, 374.386 281.745 L 376.272 277 383.136 277 C 389.333 277, 390 276.806, 390 275 C 390 273.242, 389.333 273, 384.500 273 C 381.475 273, 379 272.587, 379 272.083 C 379 271.579, 379.884 269.104, 380.964 266.583 C 382.749 262.419, 383.241 262, 386.339 262 C 392.768 262, 396 260.907, 396 258.733 C 396 256.864, 395.558 256.761, 390 257.342 C 386.700 257.687, 384 257.768, 384 257.522 C 384 257.276, 384.932 254.583, 386.072 251.538 L 388.144 246 394.013 246 C 400.114 246, 401.433 245.291, 400.389 242.571 C 399.886 241.260, 398.851 241.084, 394.803 241.620 L 389.836 242.279 390.492 237.390 C 391.506 229.844, 391.349 230, 397.969 230 C 403.333 230, 404 229.779, 404 228 C 404 226.238, 403.333 226, 398.406 226 L 392.812 226 393.520 220.750 C 393.910 217.863, 394.429 215.162, 394.673 214.750 C 394.918 214.338, 397.791 214, 401.059 214 C 406.283 214, 407 213.765, 407 212.050 C 407 210.378, 406.182 210.057, 401.266 209.800 L 395.531 209.500 395.821 205 C 396.332 197.050, 396.549 196.788, 402.327 197.165 C 406.585 197.443, 407.524 197.200, 407.806 195.750 C 408.098 194.252, 407.344 194, 402.573 194 L 397 194 397 189 L 397 184 402.500 184 C 406.722 184, 408 183.652, 408 182.500 C 408 181.352, 406.733 181, 402.601 181 L 397.201 181 396.770 176.250 C 396.533 173.637, 396.514 171.162, 396.728 170.750 C 396.943 170.338, 399.566 170, 402.559 170 C 407.333 170, 408 169.755, 408 168 C 408 166.227, 407.333 166, 402.125 166 C 396.345 166, 396.240 165.949, 395.625 162.875 C 395.281 161.156, 395 159.356, 395 158.875 C 395 158.394, 397.508 158, 400.573 158 C 405.344 158, 406.098 157.748, 405.806 156.250 C 405.524 154.801, 404.586 154.557, 400.344 154.834 C 397.527 155.017, 394.999 154.792, 394.726 154.334 C 394.454 153.875, 393.914 151.588, 393.527 149.250 L 392.824 145 398.912 145 C 404.333 145, 405 144.781, 405 143 C 405 141.209, 404.333 141, 398.607 141 C 391.672 141, 391 140.462, 391 134.918 C 391 132.083, 391.142 132, 396 132 C 399.778 132, 401 131.633, 401 130.500 C 401 129.338, 399.684 129, 395.158 129 L 389.317 129 388.158 125.134 C 387.521 123.008, 387 120.983, 387 120.634 C 387 120.285, 389.475 120, 392.500 120 C 397.333 120, 398 119.758, 398 118 C 398 116.204, 397.333 116, 391.475 116 C 385.323 116, 384.892 115.847, 383.934 113.328 C 382.326 109.096, 383.361 108, 388.969 108 C 392.774 108, 394 107.635, 394 106.500 C 394 105.323, 392.622 105, 387.598 105 C 381.522 105, 381.145 104.860, 380.200 102.250 C 379.653 100.737, 378.885 98.713, 378.495 97.750 C 377.866 96.197, 378.473 96, 383.893 96 C 389.333 96, 390 95.782, 390 94 C 390 92.190, 389.333 92, 382.969 92 C 377.344 92, 375.810 91.668, 375.301 90.342 C 374.685 88.737, 376.185 87.103, 382.108 82.928 C 383.454 81.980, 384.040 80.874, 383.586 80.139 C 383.029 79.238, 381.654 79.581, 378.291 81.461 C 375.792 82.857, 373.366 84, 372.900 84 C 371.992 84, 369 78.737, 369 77.139 C 369 76.611, 371.025 75.198, 373.500 74 C 377.781 71.928, 379.140 69.823, 377.037 68.523 C 376.508 68.196, 374.267 69.069, 372.057 70.464 C 369.848 71.859, 367.693 72.997, 367.270 72.992 C 366.846 72.988, 365.511 71.252, 364.302 69.134 L 362.103 65.283 366.668 61.058 C 372.545 55.620, 371.263 53.541, 364.745 57.940 C 359.747 61.312, 359 61.558, 359 59.829 C 359 59.185, 358.361 57.947, 357.580 57.079 C 356.336 55.696, 356.579 54.880, 359.533 50.514 C 362.457 46.191, 362.695 45.409, 361.314 44.636 C 360.188 44.006, 359.437 44.254, 358.748 45.485 C 358.213 46.443, 356.813 48.187, 355.637 49.363 L 353.500 51.500 353.204 44.750 C 352.981 39.646, 352.554 38, 351.454 38 C 350.332 38, 350 39.472, 350 44.441 M 347.925 61.250 C 344.512 66.560, 338.404 77.580, 335.315 84 C 334.388 85.925, 331.913 91.040, 329.815 95.366 C 327.717 99.692, 326 103.989, 326 104.916 C 326 105.842, 325.617 107.028, 325.149 107.550 C 324.681 108.073, 323.159 111.425, 321.768 115 C 319.434 120.994, 318.347 124.798, 312.911 146 C 308.608 162.782, 308.323 208.382, 312.416 225 C 316.552 241.790, 320.561 255.239, 323.113 260.888 C 324.701 264.402, 326 267.796, 326 268.431 C 326 269.887, 338.698 294.977, 340.458 297 C 341.176 297.825, 342.059 299.471, 342.420 300.657 C 342.781 301.844, 344.629 304.769, 346.528 307.157 C 348.427 309.546, 349.985 312.063, 349.990 312.750 C 350.011 315.457, 353.079 313.783, 355.230 309.891 C 362.703 296.365, 365.551 290.938, 371.875 278.172 C 374.144 273.592, 376 269.267, 376 268.561 C 376 267.854, 377.330 264.344, 378.955 260.759 C 380.581 257.174, 382.432 252.050, 383.069 249.371 C 383.706 246.692, 385.288 240.900, 386.584 236.500 C 391.144 221.019, 392.273 211.128, 392.290 186.500 C 392.307 162.704, 391.330 152.231, 387.928 139.752 C 386.841 135.763, 385.061 129.050, 383.971 124.833 C 382.882 120.616, 380.716 114.316, 379.158 110.833 C 377.601 107.350, 376.043 103.357, 375.697 101.959 C 374.021 95.198, 353.501 56, 351.637 56 C 351.451 56, 349.781 58.362, 347.925 61.250 M 343.330 90.640 C 342.465 90.990, 342.562 92.292, 343.700 95.633 C 345.875 102.016, 344.975 108.378, 340.661 117.108 C 336.473 125.584, 336.051 130.220, 338.950 135.902 C 341.343 140.592, 346.025 143, 352.751 143 C 359.421 143, 365.583 138.739, 366.577 133.439 C 367.701 127.449, 366.328 120.647, 362.563 113.550 C 358.814 106.483, 358.036 100.847, 359.909 94.316 C 360.618 91.846, 360.495 91.020, 359.354 90.582 C 358.366 90.203, 357.420 91.145, 356.445 93.478 C 354.015 99.292, 354.632 104.922, 358.649 113.609 C 362.792 122.569, 363.828 128.586, 361.993 133.017 C 358.949 140.365, 350.635 142.326, 344.766 137.082 C 341.708 134.349, 341.505 133.761, 341.575 127.832 C 341.652 121.284, 342.750 118.146, 346.345 114.201 C 348.986 111.304, 349.808 100.424, 347.828 94.577 C 346.494 90.635, 345.498 89.763, 343.330 90.640 M 21.459 133.367 C 5.842 140.639, 3.207 160.298, 16.338 171.566 C 18.627 173.531, 26.973 179.044, 34.885 183.819 C 50.044 192.968, 53.577 196.425, 54.598 203.110 C 55.318 207.826, 51.560 214.797, 47.016 217.176 C 41.932 219.837, 32.823 219.596, 26.459 216.633 C 18.941 213.132, 15.666 208.656, 13.008 198.250 C 12.353 195.684, 11.344 194, 10.461 194 C 9.244 194, 9 196.509, 9 209 C 9 221.353, 9.253 224, 10.433 224 C 11.221 224, 12.151 223.100, 12.500 222 C 13.318 219.422, 16.584 219.425, 24.839 222.013 C 33.231 224.643, 45.886 224.689, 51.565 222.110 C 61.470 217.611, 67.015 209.452, 66.978 199.434 C 66.937 188.219, 61.896 181.871, 45.586 172.496 C 23.947 160.058, 18.399 154.772, 19.352 147.503 C 19.746 144.495, 20.872 142.577, 23.899 139.753 C 27.646 136.258, 28.346 136, 34.076 136 C 45.678 136, 54.519 143.551, 57.019 155.594 C 57.745 159.090, 58.647 161, 59.571 161 C 60.746 161, 61 158.336, 61 146 C 61 133.647, 60.747 131, 59.567 131 C 58.779 131, 57.849 131.900, 57.500 133 C 57.117 134.208, 55.987 135, 54.648 135 C 53.428 135, 49.870 134.100, 46.740 133 C 38.602 130.140, 28.061 130.293, 21.459 133.367 M 228.487 132.799 C 212.356 138.377, 201.977 150.759, 198.254 168.868 C 193.906 190.010, 203.726 211.844, 221.500 220.558 C 227.205 223.355, 228.139 223.500, 240.500 223.500 C 254.474 223.500, 257.247 222.711, 265.793 216.302 C 269.783 213.310, 277 204.364, 277 202.410 C 277 199.822, 274.998 200.952, 269.225 206.799 C 260.987 215.142, 257.667 216.500, 245.500 216.500 C 234.433 216.500, 229.651 214.839, 223.336 208.800 C 215.762 201.557, 211.854 185.607, 213.740 169.634 C 216.345 147.576, 226.348 136.035, 242.884 136.010 C 251.532 135.997, 256.264 137.600, 261.701 142.386 C 265.893 146.076, 271.997 156.368, 271.999 159.750 C 272 160.438, 272.930 161, 274.067 161 C 275.559 161, 275.997 160.512, 275.639 159.250 C 275.366 158.287, 274.835 151.537, 274.460 144.250 C 273.874 132.887, 273.542 131, 272.129 131 C 271.223 131, 269.919 131.900, 269.232 133 C 267.674 135.494, 265.109 135.489, 257.595 132.975 C 249.912 130.405, 235.659 130.319, 228.487 132.799 M 562.935 171.655 C 545.096 213.330, 542.006 219, 537.132 219 C 535.904 219, 535 219.636, 535 220.500 C 535 221.762, 537.222 222, 549 222 C 560.778 222, 563 221.762, 563 220.500 C 563 219.527, 562.025 219, 560.223 219 C 558.695 219, 556.400 218.268, 555.123 217.373 C 552.232 215.348, 552.570 213.175, 557.601 201.466 L 561.237 193 577.987 193 L 594.736 193 598.368 202.489 C 603.462 215.799, 603.278 217.582, 596.662 218.935 C 595.005 219.274, 593.466 220.102, 593.241 220.776 C 592.930 221.711, 597.097 222, 610.917 222 C 626.324 222, 629 221.778, 629 220.500 C 629 219.675, 628.121 219, 627.047 219 C 623.907 219, 620.160 216.893, 618.326 214.096 C 617.390 212.668, 609.085 193.500, 599.870 171.500 C 590.550 149.247, 582.507 131.372, 581.743 131.212 C 580.801 131.015, 574.884 143.739, 562.935 171.655 M 665.487 132.799 C 649.356 138.377, 638.977 150.759, 635.254 168.868 C 630.906 190.010, 640.726 211.844, 658.500 220.558 C 664.205 223.355, 665.139 223.500, 677.500 223.500 C 691.474 223.500, 694.247 222.711, 702.793 216.302 C 706.783 213.310, 714 204.364, 714 202.410 C 714 199.822, 711.998 200.952, 706.225 206.799 C 697.987 215.142, 694.667 216.500, 682.500 216.500 C 671.433 216.500, 666.651 214.839, 660.336 208.800 C 652.762 201.557, 648.854 185.607, 650.740 169.634 C 653.345 147.576, 663.348 136.035, 679.884 136.010 C 688.532 135.997, 693.264 137.600, 698.701 142.386 C 702.893 146.076, 708.997 156.368, 708.999 159.750 C 709 160.438, 709.930 161, 711.067 161 C 712.559 161, 712.997 160.512, 712.639 159.250 C 712.366 158.287, 711.835 151.537, 711.460 144.250 C 710.874 132.887, 710.542 131, 709.129 131 C 708.223 131, 706.919 131.900, 706.232 133 C 704.674 135.494, 702.109 135.489, 694.595 132.975 C 686.912 130.405, 672.659 130.319, 665.487 132.799 M 747.935 171.655 C 730.096 213.330, 727.006 219, 722.132 219 C 720.904 219, 720 219.636, 720 220.500 C 720 221.762, 722.222 222, 734 222 C 745.778 222, 748 221.762, 748 220.500 C 748 219.527, 747.025 219, 745.223 219 C 743.695 219, 741.400 218.268, 740.123 217.373 C 737.232 215.348, 737.570 213.175, 742.601 201.466 L 746.237 193 762.987 193 L 779.736 193 783.368 202.489 C 788.462 215.799, 788.278 217.582, 781.662 218.935 C 780.005 219.274, 778.466 220.102, 778.241 220.776 C 777.930 221.711, 782.097 222, 795.917 222 C 811.324 222, 814 221.778, 814 220.500 C 814 219.675, 813.121 219, 812.047 219 C 808.907 219, 805.160 216.893, 803.326 214.096 C 802.390 212.668, 794.085 193.500, 784.870 171.500 C 775.550 149.247, 767.507 131.372, 766.743 131.212 C 765.801 131.015, 759.884 143.739, 747.935 171.655 M 76 133.988 C 76 134.532, 77.868 135.275, 80.152 135.640 C 88.335 136.949, 88 135.163, 88 177.500 C 88 219.837, 88.335 218.051, 80.152 219.360 C 77.868 219.725, 76 220.468, 76 221.012 C 76 221.628, 83.151 222, 95 222 C 106.849 222, 114 221.628, 114 221.012 C 114 220.468, 112.209 219.737, 110.021 219.387 C 102.515 218.187, 102.537 218.246, 102.188 198.833 L 101.877 181.500 114.688 181.500 C 126.791 181.500, 127.753 181.351, 132.070 178.813 C 141.091 173.510, 145.432 163.017, 143.048 152.278 C 141.981 147.470, 140.904 145.637, 136.633 141.358 C 129.011 133.722, 125.703 133, 98.318 133 C 84.284 133, 76 133.367, 76 133.988 M 151 133.988 C 151 134.532, 152.868 135.275, 155.152 135.640 C 163.335 136.949, 163 135.163, 163 177.500 C 163 219.837, 163.335 218.051, 155.152 219.360 C 152.868 219.725, 151 220.468, 151 221.012 C 151 221.629, 158.322 222, 170.500 222 C 181.985 222, 190 221.614, 190 221.061 C 190 220.545, 187.966 219.818, 185.481 219.445 C 182.366 218.978, 180.347 217.985, 178.981 216.249 C 177.089 213.844, 177 212.100, 177 177.500 C 177 142.900, 177.089 141.156, 178.981 138.751 C 180.347 137.015, 182.366 136.022, 185.481 135.555 C 187.966 135.182, 190 134.455, 190 133.939 C 190 133.386, 181.985 133, 170.500 133 C 158.322 133, 151 133.371, 151 133.988 M 417 134.471 C 417 135.542, 418.015 136, 420.389 136 C 422.253 136, 424.841 136.860, 426.139 137.911 L 428.500 139.822 428.787 176.115 C 429.082 213.456, 428.743 217.387, 425.142 218.392 C 424.239 218.644, 422.038 219.145, 420.250 219.505 C 412.789 221.006, 417.867 222, 433 222 C 448.266 222, 453.332 220.990, 445.250 219.558 C 443.188 219.192, 440.761 218.677, 439.858 218.413 C 436.362 217.392, 435.961 213.311, 436.234 181.604 L 436.500 150.708 452.540 186.104 C 465.452 214.596, 468.951 221.500, 470.482 221.500 C 472.012 221.500, 475.467 214.686, 488.189 186.586 C 496.883 167.383, 504.240 151.427, 504.538 151.128 C 504.837 150.830, 504.951 165.032, 504.791 182.689 C 504.461 219.096, 504.659 218.224, 496.440 219.457 C 493.998 219.823, 492 220.545, 492 221.061 C 492 221.614, 500.015 222, 511.500 222 C 523.678 222, 531 221.629, 531 221.012 C 531 220.468, 529.209 219.737, 527.021 219.387 C 518.386 218.007, 518.119 216.752, 518.119 177.500 C 518.119 138.248, 518.386 136.993, 527.021 135.613 C 529.209 135.263, 531 134.519, 531 133.959 C 531 133.307, 526.270 133.042, 517.816 133.221 L 504.631 133.500 489.647 166.750 C 481.407 185.037, 474.402 199.994, 474.082 199.987 C 473.762 199.979, 466.699 185.017, 458.387 166.737 L 443.274 133.500 430.137 133.221 C 418.894 132.982, 417 133.162, 417 134.471 M 804 134.375 C 804 135.131, 805.249 136, 806.777 136.305 C 811.806 137.311, 814.683 140.778, 829.509 163.700 L 844.179 186.382 843.840 200.588 C 843.546 212.860, 843.241 215.080, 841.595 216.897 C 840.547 218.054, 838.747 219.006, 837.595 219.014 C 834.420 219.034, 831 220.125, 831 221.117 C 831 221.602, 839.775 222, 850.500 222 C 861.225 222, 870 221.602, 870 221.117 C 870 220.125, 866.580 219.034, 863.405 219.014 C 862.253 219.006, 860.455 218.055, 859.409 216.900 C 857.762 215.079, 857.461 212.824, 857.147 199.964 L 856.785 185.128 869.944 164.201 C 877.182 152.692, 884.379 142.053, 885.939 140.559 C 887.498 139.064, 890.497 137.250, 892.602 136.526 C 900.423 133.837, 897.806 133, 881.583 133 C 868.398 133, 866 133.231, 866 134.500 C 866 135.497, 866.997 136, 868.977 136 C 873.209 136, 875.616 139.795, 874.115 144.100 C 872.964 147.403, 854.859 176.939, 854 176.916 C 853.140 176.892, 833.872 145.932, 832.795 142.843 C 831.966 140.464, 832.107 139.539, 833.541 137.954 C 834.514 136.879, 836.103 136, 837.073 136 C 839.548 136, 842 134.951, 842 133.893 C 842 133.400, 833.482 133, 823 133 C 807.545 133, 804 133.257, 804 134.375 M 102.445 139.284 C 102.174 139.990, 102.075 148.652, 102.226 158.534 L 102.500 176.500 109.213 176.795 C 117.319 177.151, 120.932 175.571, 124.565 170.081 C 131.194 160.064, 127.518 144.364, 117.316 139.122 C 114.227 137.535, 103.069 137.656, 102.445 139.284 M 570.316 172.250 L 563.131 188.500 570.566 188.792 C 574.655 188.953, 581.302 188.953, 585.338 188.792 L 592.676 188.500 585.654 172.250 C 581.793 163.313, 578.378 156, 578.067 156 C 577.755 156, 574.267 163.313, 570.316 172.250 M 755.316 172.250 L 748.131 188.500 755.566 188.792 C 759.655 188.953, 766.302 188.953, 770.338 188.792 L 777.676 188.500 770.654 172.250 C 766.793 163.313, 763.378 156, 763.067 156 C 762.755 156, 759.267 163.313, 755.316 172.250 M 344.252 229.745 C 340.302 231.710, 336.990 238.045, 337.025 243.566 C 337.042 246.106, 338.459 250.331, 341.025 255.489 C 345.394 264.269, 345.983 268.961, 343.576 275.784 C 342.107 279.948, 342.337 281, 344.718 281 C 347.271 281, 349.224 274.115, 348.839 266.474 C 348.540 260.557, 348.037 258.832, 345.853 256.238 C 340.506 249.883, 340.016 238.010, 344.918 233.574 C 347.755 231.007, 354.397 230.375, 357.458 232.381 C 364.108 236.738, 364.496 244.806, 358.659 257.391 C 354.631 266.078, 354.012 271.700, 356.445 277.522 C 357.438 279.898, 358.358 280.800, 359.388 280.405 C 360.538 279.963, 360.667 279.255, 359.943 277.350 C 357.794 271.699, 358.816 264.730, 363 256.500 C 367.507 247.635, 368.209 241.349, 365.362 235.351 C 362.270 228.834, 351.714 226.031, 344.252 229.745" stroke="none" fill="#060604" fill-rule="evenodd"/></svg>